<svg xmlns="http://www.w3.org/2000/svg" width="32" height="32" viewBox="0 0 32 32" fill="none">
  <rect width="32" height="32" rx="8" fill="#2563eb"/>
  <path d="M16 8C11.582 8 8 11.582 8 16C8 20.418 11.582 24 16 24C20.418 24 24 20.418 24 16C24 11.582 20.418 8 16 8ZM16 12C17.473 12 18.667 13.193 18.667 14.667C18.667 16.14 17.473 17.333 16 17.333C14.527 17.333 13.333 16.14 13.333 14.667C13.333 13.193 14.527 12 16 12ZM16 21.467C13.667 21.467 11.527 20.107 10.56 18.253C10.587 16.367 14.333 15.333 16 15.333C17.66 15.333 21.413 16.367 21.44 18.253C20.473 20.107 18.333 21.467 16 21.467Z" fill="white"/>
</svg>
