<svg xmlns="http://www.w3.org/2000/svg" width="48" height="48" viewBox="0 0 48 48" fill="none">
  <rect width="48" height="48" rx="12" fill="#2563eb"/>
  <path d="M24 12C17.372 12 12 17.372 12 24C12 30.628 17.372 36 24 36C30.628 36 36 30.628 36 24C36 17.372 30.628 12 24 12ZM24 18C26.21 18 28 19.79 28 22C28 24.21 26.21 26 24 26C21.79 26 20 24.21 20 22C20 19.79 21.79 18 24 18ZM24 32.2C20.5 32.2 17.29 30.16 15.84 27.38C15.87 24.55 21.5 23 24 23C26.49 23 32.13 24.55 32.16 27.38C30.71 30.16 27.5 32.2 24 32.2Z" fill="white"/>
</svg>
